<svg version="1.1" viewBox="0.0 0.0 1889.763779527559 1889.763779527559" fill="none" stroke="none" stroke-linecap="square" stroke-miterlimit="10" xmlns:xlink="http://www.w3.org/1999/xlink" xmlns="http://www.w3.org/2000/svg"><clipPath id="p.0"><path d="m0 0l1889.7638 0l0 1889.7638l-1889.7638 0l0 -1889.7638z" clip-rule="nonzero"/></clipPath><g clip-path="url(#p.0)"><path fill="#000000" fill-opacity="0.0" d="m0 0l1889.7638 0l0 1889.7638l-1889.7638 0z" fill-rule="evenodd"/><path fill="#3d85c6" d="m568.50397 118.95538l755.90546 0l0 1662.9922l-755.90546 0z" fill-rule="evenodd"/><path stroke="#c9daf8" stroke-width="8.0" stroke-linejoin="round" stroke-linecap="butt" d="m568.50397 118.95538l755.90546 0l0 1662.9922l-755.90546 0z" fill-rule="evenodd"/><path fill="#3d85c6" d="m568.50397 118.95538l377.9527 0l0 566.92914l-377.9527 0z" fill-rule="evenodd"/><path stroke="#c9daf8" stroke-width="8.0" stroke-linejoin="round" stroke-linecap="butt" d="m568.50397 118.95538l377.9527 0l0 566.92914l-377.9527 0z" fill-rule="evenodd"/><path fill="#3d85c6" d="m946.45667 118.95538l377.95276 0l0 566.92914l-377.95276 0z" fill-rule="evenodd"/><path stroke="#c9daf8" stroke-width="8.0" stroke-linejoin="round" stroke-linecap="butt" d="m946.45667 118.95538l377.95276 0l0 566.92914l-377.95276 0z" fill-rule="evenodd"/><path fill="#3d85c6" d="m568.50397 1215.0184l377.9527 0l0 566.9291l-377.9527 0z" fill-rule="evenodd"/><path stroke="#c9daf8" stroke-width="8.0" stroke-linejoin="round" stroke-linecap="butt" d="m568.50397 1215.0184l377.9527 0l0 566.9291l-377.9527 0z" fill-rule="evenodd"/><path fill="#3d85c6" d="m946.45667 1215.0184l377.95276 0l0 566.9291l-377.95276 0z" fill-rule="evenodd"/><path stroke="#c9daf8" stroke-width="8.0" stroke-linejoin="round" stroke-linecap="butt" d="m946.45667 1215.0184l377.95276 0l0 566.9291l-377.95276 0z" fill-rule="evenodd"/><path fill="#10ff00" fill-opacity="0.5" d="m1246.5056 1782.5792l-1094.5056 -1774.5792l840.7072 0l-118.96802 1774.5792z" fill-rule="evenodd"/><path fill="#ff0000" fill-opacity="0.5" d="m1398.5511 1782.5958l-1344.0 -1776.0l889.4488 1.4041996l78.55121 1774.5958z" fill-rule="evenodd"/></g></svg>